<svg width="124" height="26" viewBox="0 0 124 26" fill="none" xmlns="http://www.w3.org/2000/svg">
<path d="M0.392181 1.55142H4.78699V19.8888H0.392181V1.55142ZM6.53025 12.965C6.53025 8.4298 9.22573 5.72381 13.3861 5.72381C17.5466 5.72381 20.242 8.4298 20.242 12.965C20.242 17.5002 17.6052 20.2213 13.3861 20.2213C9.16714 20.2213 6.53025 17.5758 6.53025 12.965ZM15.8326 12.965C15.8326 10.4706 14.8804 9.00426 13.3861 9.00426C11.8919 9.00426 10.9544 10.516 10.9544 12.965C10.9544 15.414 11.8773 16.8955 13.3861 16.8955C14.895 16.8955 15.8326 15.5047 15.8326 12.9801V12.965ZM21.8974 20.7807H26.1164C26.3172 21.241 26.6567 21.6221 27.0843 21.8673C27.5119 22.1124 28.0048 22.2085 28.4896 22.1412C30.1597 22.1412 31.0386 21.204 31.0386 19.8434V17.3037H30.9507C30.6006 18.0821 30.0324 18.7343 29.3195 19.1762C28.6067 19.6181 27.7818 19.8295 26.9514 19.7829C23.7432 19.7829 21.6191 17.2583 21.6191 12.9197C21.6191 8.58098 23.6407 5.84474 27.01 5.84474C27.8664 5.8101 28.7126 6.04637 29.4353 6.5219C30.1579 6.99743 30.7224 7.6895 31.0533 8.50539V5.9808H35.4481V19.7376C35.4481 23.0483 32.6207 25.1042 28.4457 25.1042C24.5636 25.1042 22.1465 23.3053 21.8974 20.7958V20.7807ZM31.0533 12.9499C31.0533 10.7428 30.0718 9.35196 28.5189 9.35196C26.9661 9.35196 26.0139 10.7276 26.0139 12.9499C26.0139 15.1721 26.9514 16.4269 28.5189 16.4269C30.0864 16.4269 31.0533 15.2024 31.0533 12.965V12.9499ZM37.1034 12.9499C37.1034 8.41469 39.7989 5.70869 43.9593 5.70869C48.1197 5.70869 50.8299 8.41469 50.8299 12.9499C50.8299 17.4851 48.193 20.2062 43.9593 20.2062C39.7257 20.2062 37.1034 17.5758 37.1034 12.965V12.9499ZM46.4058 12.9499C46.4058 10.4555 45.4536 8.98915 43.9593 8.98915C42.4651 8.98915 41.6008 10.516 41.6008 12.9801C41.6008 15.4443 42.5237 16.9106 44.0179 16.9106C45.5122 16.9106 46.4058 15.5047 46.4058 12.9801V12.9499ZM52.4999 2.68522C52.4884 2.22732 52.6089 1.77621 52.8461 1.38906C53.0833 1.00192 53.4266 0.696176 53.8324 0.510595C54.2382 0.325015 54.6883 0.267954 55.1255 0.346645C55.5628 0.425336 55.9676 0.636236 56.2886 0.95261C56.6096 1.26898 56.8323 1.67658 56.9285 2.12374C57.0248 2.57089 56.9902 3.03746 56.8291 3.46431C56.6681 3.89115 56.3879 4.25905 56.024 4.52135C55.6601 4.78366 55.229 4.92857 54.7852 4.9377C54.491 4.95856 54.1958 4.91641 53.9182 4.81391C53.6405 4.71141 53.3864 4.55077 53.1718 4.34208C52.9572 4.1334 52.7867 3.88117 52.6711 3.60124C52.5555 3.32131 52.4972 3.01974 52.4999 2.71545V2.68522ZM52.4999 6.01103H56.8947V19.8888H52.4999V6.01103ZM72.8478 12.9499C72.8478 17.4851 70.8995 20.0702 67.5594 20.0702C66.703 20.1269 65.8503 19.9108 65.1167 19.4512C64.3831 18.9916 63.8039 18.3105 63.4576 17.5002H63.3697V24.3332H58.9749V5.9808H63.3697V8.46004H63.4576C63.7878 7.63632 64.3559 6.93756 65.0846 6.4588C65.8133 5.98004 66.6671 5.74452 67.5301 5.78427C70.8995 5.84474 72.9064 8.44493 72.9064 12.9801L72.8478 12.9499ZM68.453 12.9499C68.453 10.7428 67.4715 9.33685 65.9333 9.33685C64.3952 9.33685 63.4137 10.7579 63.399 12.9499C63.3844 15.1419 64.3952 16.5478 65.9333 16.5478C67.4715 16.5478 68.453 15.1721 68.453 12.9801V12.9499ZM80.3923 5.69357C84.0399 5.69357 86.252 7.47742 86.3545 10.3346H82.3553C82.3553 9.35197 81.5642 8.73215 80.3483 8.73215C79.1324 8.73215 78.5904 9.21591 78.5904 9.92642C78.5904 10.6369 79.0738 10.8637 80.0553 11.0753L82.868 11.6649C85.5488 12.2545 86.6915 13.3732 86.6915 15.4745C86.6915 18.3468 84.1571 20.1911 80.4215 20.1911C76.686 20.1911 74.2395 18.3468 74.0491 15.5198H78.2827C78.4146 16.5478 79.2057 17.1525 80.4948 17.1525C81.7839 17.1525 82.3699 16.7141 82.3699 15.9885C82.3699 15.2628 81.9597 15.1117 80.905 14.8849L78.3706 14.3256C75.7484 13.7662 74.3714 12.3301 74.3714 10.2137C74.4007 7.49253 76.7592 5.72381 80.3923 5.72381V5.69357ZM101.355 19.8585H97.1218V17.2735H97.0339C96.8012 18.1414 96.2878 18.901 95.579 19.4263C94.8701 19.9515 94.0085 20.2107 93.1372 20.1609C92.4695 20.2 91.8014 20.0908 91.1781 19.8407C90.5548 19.5905 89.9908 19.2052 89.5242 18.7108C89.0576 18.2164 88.6992 17.6244 88.4734 16.9748C88.2475 16.3252 88.1594 15.6331 88.215 14.9454V5.9808H92.6098V13.9023C92.6098 15.5501 93.4302 16.4269 94.7926 16.4269C95.112 16.4276 95.4279 16.3577 95.7191 16.2221C96.0103 16.0865 96.27 15.8882 96.4809 15.6406C96.6918 15.3929 96.8489 15.1016 96.9417 14.7862C97.0346 14.4707 97.061 14.1384 97.0193 13.8116V5.9808H101.414L101.355 19.8585ZM103.48 5.9808H107.728V8.65657H107.816C108.049 7.80014 108.551 7.04769 109.243 6.517C109.935 5.98632 110.777 5.70736 111.639 5.72381C112.516 5.65134 113.387 5.92216 114.08 6.48238C114.772 7.04261 115.234 7.85119 115.375 8.74727H115.463C115.729 7.84166 116.279 7.05303 117.027 6.50563C117.775 5.95823 118.678 5.68318 119.594 5.72381C120.192 5.70309 120.787 5.81236 121.341 6.04452C121.895 6.27669 122.395 6.62655 122.81 7.07138C123.224 7.51621 123.544 8.04605 123.747 8.62648C123.95 9.20691 124.032 9.82494 123.989 10.4404V19.8888H119.594V11.6498C119.594 10.1381 118.935 9.44267 117.704 9.44267C117.43 9.44027 117.158 9.49864 116.907 9.61382C116.657 9.72901 116.433 9.89834 116.251 10.1104C116.069 10.3224 115.933 10.5723 115.853 10.8431C115.773 11.1138 115.749 11.3992 115.785 11.68V19.8888H111.61V11.5893C111.61 10.1985 110.951 9.44267 109.75 9.44267C109.472 9.44276 109.198 9.50357 108.945 9.62109C108.692 9.73861 108.465 9.91017 108.281 10.1245C108.097 10.3387 107.959 10.5909 107.876 10.8642C107.794 11.1376 107.768 11.4259 107.801 11.7103V19.8888H103.406L103.48 5.9808Z" fill="white"/>
</svg>
